<mxfile host="drawio-plugin" modified="2024-03-18T18:28:58.164Z" agent="5.0 (Macintosh; Intel Mac OS X 10_15_7) AppleWebKit/537.36 (KHTML, like Gecko) Chrome/111.0.0.0 Safari/537.36" etag="NthU0O1jwnZ74QXNUeOX" version="20.5.3" type="embed"><diagram id="23iRSUPoRavnBvh4doch" name="Page-1"><mxGraphModel dx="531" dy="615" grid="1" gridSize="10" guides="1" tooltips="1" connect="1" arrows="1" fold="1" page="1" pageScale="1" pageWidth="827" pageHeight="1169" math="0" shadow="0"><root><mxCell id="0"/><mxCell id="1" parent="0"/><mxCell id="2" style="edgeStyle=orthogonalEdgeStyle;rounded=0;orthogonalLoop=1;jettySize=auto;html=1;fontFamily=Courier New;fontSize=16;endArrow=none;endFill=0;" edge="1" parent="1" source="3" target="6"><mxGeometry relative="1" as="geometry"><Array as="points"><mxPoint x="160" y="240"/><mxPoint x="160" y="240"/></Array></mxGeometry></mxCell><mxCell id="3" value="Sender" style="text;html=1;align=center;verticalAlign=middle;resizable=0;points=[];autosize=1;strokeColor=#666666;fillColor=#f5f5f5;fontSize=16;fontFamily=Courier New;fontColor=#333333;fontStyle=1" vertex="1" parent="1"><mxGeometry x="120" y="150" width="80" height="30" as="geometry"/></mxCell><mxCell id="4" style="edgeStyle=orthogonalEdgeStyle;rounded=0;orthogonalLoop=1;jettySize=auto;html=1;fontFamily=Courier New;fontSize=16;endArrow=none;endFill=0;" edge="1" parent="1" source="5" target="7"><mxGeometry relative="1" as="geometry"/></mxCell><mxCell id="5" value="Receiver" style="text;html=1;align=center;verticalAlign=middle;resizable=0;points=[];autosize=1;strokeColor=#666666;fillColor=#f5f5f5;fontSize=16;fontFamily=Courier New;fontColor=#333333;fontStyle=1" vertex="1" parent="1"><mxGeometry x="350" y="150" width="100" height="30" as="geometry"/></mxCell><mxCell id="6" value="Sender" style="text;html=1;align=center;verticalAlign=middle;resizable=0;points=[];autosize=1;strokeColor=#666666;fillColor=#f5f5f5;fontSize=16;fontFamily=Courier New;fontColor=#333333;fontStyle=1" vertex="1" parent="1"><mxGeometry x="120" y="495" width="80" height="30" as="geometry"/></mxCell><mxCell id="7" value="Receiver" style="text;html=1;align=center;verticalAlign=middle;resizable=0;points=[];autosize=1;strokeColor=#666666;fillColor=#f5f5f5;fontSize=16;fontFamily=Courier New;fontColor=#333333;fontStyle=1" vertex="1" parent="1"><mxGeometry x="350" y="495" width="100" height="30" as="geometry"/></mxCell><mxCell id="8" value="" style="endArrow=cross;html=1;rounded=0;fontFamily=Courier New;fontSize=16;startArrow=oval;startFill=1;endFill=0;" edge="1" parent="1"><mxGeometry width="50" height="50" relative="1" as="geometry"><mxPoint x="160" y="210" as="sourcePoint"/><mxPoint x="400" y="240" as="targetPoint"/></mxGeometry></mxCell><mxCell id="9" value="Hello, I am Sender." style="edgeLabel;align=center;verticalAlign=middle;resizable=0;points=[];fontSize=14;fontFamily=Courier New;html=1;rotation=7;fontStyle=1;labelBackgroundColor=none;" vertex="1" connectable="0" parent="8"><mxGeometry x="-0.0768" y="-1" relative="1" as="geometry"><mxPoint x="5" y="-10" as="offset"/></mxGeometry></mxCell><mxCell id="12" value="" style="endArrow=cross;html=1;rounded=0;fontFamily=Courier New;fontSize=16;startArrow=oval;startFill=1;sketch=0;endFill=0;" edge="1" parent="1"><mxGeometry width="50" height="50" relative="1" as="geometry"><mxPoint x="160" y="280" as="sourcePoint"/><mxPoint x="400" y="310" as="targetPoint"/></mxGeometry></mxCell><mxCell id="13" value="Hello, I am Sender" style="edgeLabel;align=center;verticalAlign=middle;resizable=0;points=[];fontSize=14;fontFamily=Courier New;html=1;rotation=7;fontStyle=1;labelBackgroundColor=none;" vertex="1" connectable="0" parent="12"><mxGeometry x="-0.0768" y="-1" relative="1" as="geometry"><mxPoint x="5" y="-10" as="offset"/></mxGeometry></mxCell><mxCell id="14" value="" style="endArrow=none;dashed=1;html=1;rounded=0;fontFamily=Courier New;fontSize=14;strokeWidth=1;sketch=1;shadow=0;" edge="1" parent="1"><mxGeometry width="50" height="50" relative="1" as="geometry"><mxPoint x="137" y="458" as="sourcePoint"/><mxPoint x="420" y="458" as="targetPoint"/></mxGeometry></mxCell><mxCell id="15" value="&lt;b&gt;Sender loses patience.&lt;/b&gt;" style="edgeLabel;html=1;align=center;verticalAlign=middle;resizable=0;points=[];fontSize=14;fontFamily=Courier New;labelBackgroundColor=none;" vertex="1" connectable="0" parent="14"><mxGeometry x="-0.384" y="-1" relative="1" as="geometry"><mxPoint x="57" y="7" as="offset"/></mxGeometry></mxCell><mxCell id="20" value="" style="endArrow=classicThin;startArrow=classicThin;html=1;rounded=0;dashed=1;endFill=1;startFill=1;" edge="1" parent="1"><mxGeometry width="50" height="50" relative="1" as="geometry"><mxPoint x="140" y="280" as="sourcePoint"/><mxPoint x="140" y="210" as="targetPoint"/></mxGeometry></mxCell><mxCell id="21" value="&lt;font face=&quot;Courier New&quot; style=&quot;font-size: 14px;&quot;&gt;&lt;b style=&quot;font-size: 14px;&quot;&gt;1s&lt;/b&gt;&lt;/font&gt;" style="edgeLabel;html=1;align=center;verticalAlign=middle;resizable=0;points=[];fontSize=14;labelBackgroundColor=none;rotation=0;horizontal=0;" vertex="1" connectable="0" parent="20"><mxGeometry x="0.0857" y="-1" relative="1" as="geometry"><mxPoint x="-11" y="6" as="offset"/></mxGeometry></mxCell><mxCell id="24" value="" style="endArrow=cross;html=1;rounded=0;fontFamily=Courier New;fontSize=16;startArrow=oval;startFill=1;sketch=0;endFill=0;" edge="1" parent="1"><mxGeometry width="50" height="50" relative="1" as="geometry"><mxPoint x="160" y="350" as="sourcePoint"/><mxPoint x="400" y="380" as="targetPoint"/></mxGeometry></mxCell><mxCell id="25" value="Hello, I am Sender" style="edgeLabel;align=center;verticalAlign=middle;resizable=0;points=[];fontSize=14;fontFamily=Courier New;html=1;rotation=7;fontStyle=1;labelBackgroundColor=none;" vertex="1" connectable="0" parent="24"><mxGeometry x="-0.0768" y="-1" relative="1" as="geometry"><mxPoint x="5" y="-10" as="offset"/></mxGeometry></mxCell><mxCell id="26" value="" style="endArrow=classicThin;startArrow=classicThin;html=1;rounded=0;dashed=1;endFill=1;startFill=1;" edge="1" parent="1"><mxGeometry width="50" height="50" relative="1" as="geometry"><mxPoint x="140" y="350" as="sourcePoint"/><mxPoint x="140" y="280" as="targetPoint"/></mxGeometry></mxCell><mxCell id="27" value="&lt;font face=&quot;Courier New&quot; style=&quot;font-size: 14px;&quot;&gt;&lt;b style=&quot;font-size: 14px;&quot;&gt;2s&lt;/b&gt;&lt;/font&gt;" style="edgeLabel;html=1;align=center;verticalAlign=middle;resizable=0;points=[];fontSize=14;labelBackgroundColor=none;rotation=0;horizontal=0;" vertex="1" connectable="0" parent="26"><mxGeometry x="0.0857" y="-1" relative="1" as="geometry"><mxPoint x="-11" y="6" as="offset"/></mxGeometry></mxCell><mxCell id="28" value="···" style="text;html=1;align=center;verticalAlign=middle;resizable=0;points=[];autosize=1;strokeColor=none;fillColor=none;fontSize=30;fontFamily=Courier New;labelBackgroundColor=none;fontStyle=1;horizontal=0;" vertex="1" parent="1"><mxGeometry x="250" y="380" width="60" height="70" as="geometry"/></mxCell></root></mxGraphModel></diagram></mxfile>